# xmcd CD database file
#
# Track frame offsets:
#	150
#	33859
#	66567
#	97950
#	137795
#	172536
#	205327
#	240273
#
# Disc length: 3750 seconds
#
# Revision: 0
# Processed by: cddbd v1.5.2PL0 Copyright (c) Steve Scherf et al.
# Submitted via: CDex 1.51
#
DISCID=600ea408
DTITLE=Michael Reimann - Healing Energy
DYEAR=2012
DGENRE=New Age
TTITLE0=Flowing Energy
TTITLE1=Peace Of Mind
TTITLE2=Slow Moving River
TTITLE3=Both Sides Of My Medal
TTITLE4=Solitaire
TTITLE5=Caravan Of Souls
TTITLE6=Heavenly Moods
TTITLE7=Rejoice Our Hearts
EXTD=YEAR: 2012
EXTT0=
EXTT1=
EXTT2=
EXTT3=
EXTT4=
EXTT5=
EXTT6=
EXTT7=
PLAYORDER=
